<svg xmlns="http://www.w3.org/2000/svg" viewBox="0 0 1920 1069"><g id="Layer_2" data-name="Layer 2"><g id="Layer_8" data-name="Layer 8"><ellipse cx="552.5" cy="179.03" rx="125.5" ry="81.95" fill="#f4e3c3"/><ellipse cx="1156.5" cy="109.77" rx="70.5" ry="46.04" fill="#f4e3c3"/><ellipse cx="907.49" cy="279.83" rx="182.49" ry="119.17" fill="#f4e3c3"/><path d="M1130,839.83c0,65.82,81.7,119.17,182.49,119.17S1495,905.65,1495,839.83s-81.7-119.16-182.48-119.16a263.74,263.74,0,0,0-81.72,12.59c-6.14-41-59-73-123.41-73-68.49,0-124,36.25-124,81s55.52,81,124,81a189,189,0,0,0,25-1.65A79.54,79.54,0,0,0,1130,839.83Z" fill="#f4e3c3"/><path d="M1516.49,81.67C1415.7,81.67,1334,135,1334,200.83S1415.7,320,1516.49,320c99.47,0,180.34-52,182.43-116.6a62.7,62.7,0,0,0,14.17,1.6c23.26,0,42.11-12.31,42.11-27.5s-18.85-27.5-42.11-27.5a56.73,56.73,0,0,0-27.17,6.5C1659,112.64,1593.28,81.67,1516.49,81.67Z" fill="#f4e3c3"/><ellipse cx="451" cy="344.05" rx="86.49" ry="56.48" fill="#f4e3c3"/><ellipse cx="974" cy="882.07" rx="86.49" ry="56.48" fill="#f4e3c3"/><ellipse cx="506.69" cy="826.69" rx="182.71" ry="119.31" fill="#f4e3c3"/><path d="M863.94,654.61c0-31-35.81-56.57-81.9-60C811.21,573.49,829,545.52,829,514.83c0-65.81-81.7-119.16-182.48-119.16S464,449,464,514.83,545.7,634,646.49,634a277.65,277.65,0,0,0,39.72-2.84A42.88,42.88,0,0,0,679,654.61C679,688,720.38,715,771.46,715S863.94,688,863.94,654.61Z" fill="#f4e3c3"/><ellipse cx="1502.46" cy="634.61" rx="92.48" ry="60.39" fill="#f4e3c3"/><ellipse cx="1698.09" cy="857.5" rx="42.11" ry="27.5" fill="#f4e3c3"/><ellipse cx="332.09" cy="575.5" rx="42.11" ry="27.5" fill="#f4e3c3"/><ellipse cx="1778.09" cy="357.5" rx="42.11" ry="27.5" fill="#f4e3c3"/><ellipse cx="773.09" cy="102.5" rx="42.11" ry="27.5" fill="#f4e3c3"/><ellipse cx="761.09" cy="921.5" rx="42.11" ry="27.5" fill="#f4e3c3"/><ellipse cx="1161.09" cy="1005.5" rx="42.11" ry="27.5" fill="#f4e3c3"/><ellipse cx="1017.36" cy="541.24" rx="124.01" ry="80.98" fill="#f4e3c3"/><path d="M1629.77,401.11c0-27.12-33.68-49.11-75.21-49.11-35.77,0-65.69,16.31-73.31,38.16-27-43.84-92.75-74.79-169.56-74.79-100.91,0-182.71,53.42-182.71,119.32S1210.78,554,1311.69,554s182.72-53.42,182.72-119.31c0-1.41-.05-2.8-.13-4.2,13.72,12,35.61,19.73,60.28,19.73C1596.09,450.22,1629.77,428.24,1629.77,401.11Z" fill="#f4e3c3"/><ellipse cx="228.22" cy="729.45" rx="79.78" ry="52.1" fill="#f4e3c3"/><ellipse cx="216.44" cy="400.67" rx="123.01" ry="80.33" fill="#f4e3c3"/><path d="M289,152c101.07,0,183-53.5,183-119.5A81.53,81.53,0,0,0,465.15,0H112.85A81.53,81.53,0,0,0,106,32.5C106,98.5,187.93,152,289,152Z" fill="#f4e3c3"/><path d="M1625.45,0h-209.9c22.43,22.29,61,37,105,37S1603,22.29,1625.45,0Z" fill="#f4e3c3"/><path d="M956.5,61.85c58.69,0,108-26.31,121.69-61.85H834.81C848.53,35.54,897.81,61.85,956.5,61.85Z" fill="#f4e3c3"/><path d="M1328.5,75.71c38.94,0,70.5-20.61,70.5-46C1399,18.37,1392.74,8,1382.38,0H1274.62C1264.26,8,1258,18.37,1258,29.68,1258,55.1,1289.56,75.71,1328.5,75.71Z" fill="#f4e3c3"/><path d="M289,982c-83.82,0-154.47,36.8-176.15,87h352.3C443.47,1018.8,372.82,982,289,982Z" fill="#f4e3c3"/><path d="M1520.5,942.1c-69.31,0-125.5,36.7-125.5,82,0,16.59,7.56,32,20.55,44.94h209.9c13-12.91,20.55-28.35,20.55-44.94C1646,978.8,1589.81,942.1,1520.5,942.1Z" fill="#f4e3c3"/><path d="M956.5,967c-69.31,0-125.5,36.69-125.5,82a55.37,55.37,0,0,0,3.81,20.1h243.38a55.37,55.37,0,0,0,3.81-20.1C1082,1003.64,1025.81,967,956.5,967Z" fill="#f4e3c3"/><path d="M1274.62,1069h107.76c-12.93-10-32.26-16.36-53.88-16.36S1287.55,1059,1274.62,1069Z" fill="#f4e3c3"/><path d="M580.5,1018.61c-38.94,0-70.5,20.61-70.5,46a31.63,31.63,0,0,0,.32,4.36H650.68a31.63,31.63,0,0,0,.32-4.36C651,1039.22,619.44,1018.61,580.5,1018.61Z" fill="#f4e3c3"/><path d="M580.5,41.68c36.68,0,66.81-18.3,70.18-41.68H510.32C513.69,23.38,543.82,41.68,580.5,41.68Z" fill="#f4e3c3"/><path d="M230,217c0-49.51-61.46-89.65-137.28-89.65C57,127.37,24.43,136.29,0,150.91V283.13c24.43,14.61,57,23.54,92.72,23.54C168.54,306.67,230,266.53,230,217Z" fill="#f4e3c3"/><path d="M1875.43,217c0,26.17,17.18,49.72,44.57,66.11V150.91C1892.61,167.3,1875.43,190.85,1875.43,217Z" fill="#f4e3c3"/><path d="M1675.43,617.83c0,73.92,91.76,133.84,205,133.84a312.33,312.33,0,0,0,39.62-2.51V486.51a312.33,312.33,0,0,0-39.62-2.51C1767.19,484,1675.43,543.92,1675.43,617.83Z" fill="#f4e3c3"/><path d="M165.33,617.83c0-65.06-71.1-119.27-165.33-131.32V749.16C94.23,737.11,165.33,682.9,165.33,617.83Z" fill="#f4e3c3"/><path d="M171,840.51c0-36-44.67-65.16-99.78-65.16-27.9,0-53.11,7.47-71.22,19.52v91.27c18.11,12.05,43.32,19.53,71.22,19.53C126.33,905.67,171,876.49,171,840.51Z" fill="#f4e3c3"/><path d="M1891.43,840.51c0,17.77,10.9,33.88,28.57,45.63V794.87C1902.33,806.63,1891.43,822.74,1891.43,840.51Z" fill="#f4e3c3"/><path d="M48,67.51C48,43.9,28.78,23.23,0,11.8V123.22C28.78,111.78,48,91.11,48,67.51Z" fill="#f4e3c3"/><path d="M1868.22,2.35c-55.11,0-99.79,29.17-99.79,65.16s44.68,65.16,99.79,65.16a141.25,141.25,0,0,0,51.78-9.45V11.8A141,141,0,0,0,1868.22,2.35Z" fill="#f4e3c3"/><path d="M0,953.6v90.8c36.17-1.68,64.71-21.36,64.71-45.4S36.17,955.28,0,953.6Z" fill="#f4e3c3"/><path d="M1845.26,999c0,25.15,31.22,45.53,69.72,45.53,1.69,0,3.36,0,5-.13V953.6c-1.66-.08-3.33-.13-5-.13C1876.48,953.47,1845.26,973.85,1845.26,999Z" fill="#f4e3c3"/></g></g></svg>